<svg id="Capa_1" enable-background="new 0 0 512 512" height="512" viewBox="0 0 512 512" width="512" xmlns="http://www.w3.org/2000/svg"><g><g><g><path d="m51.889 63.011v143.141h55.013l14.413-143.141z" fill="#e1105a"/><path d="m106.902 63.011h54.847v143.141h-54.847z" fill="#a1073d"/></g><g><path d="m28.949 201.449v46.2h77.953l21.679-23.662-21.679-22.538z" fill="#5a6d75"/><path d="m106.902 201.449h77.953v46.199h-77.953z" fill="#475a60"/></g><g><path d="m106.83 0c-30.294 0-54.941 24.646-54.941 54.941v12.324c0 30.295 24.646 54.941 54.941 54.941.024 0 .048-.002.072-.002l10.449-58.731-10.449-63.471c-.024 0-.048-.002-.072-.002z" fill="#fc445f"/><path d="m106.902.002v122.203c30.261-.039 54.847-24.669 54.847-54.939v-12.325c0-30.271-24.586-54.9-54.847-54.939z" fill="#e1105a"/></g><g><path d="m0 247.649v264.351h106.902l18.376-126.839-18.376-137.512z" fill="#e6c897"/><path d="m106.902 247.649h106.902v264.351h-106.902z" fill="#c29578"/></g></g><g><g><path d="m340.5 212.578v58.207h-22.904c-34.141 0-61.917 27.776-61.917 61.917v179.298h128.16l27.456-134.105-27.455-165.317z" fill="#fc445f"/><path d="m512 332.701c0-34.141-27.776-61.917-61.917-61.917h-18.661v-58.207h-47.582v299.423h128.16z" fill="#e1105a"/></g><g><path d="m315.63 141.551v100.958h35.243l32.966-4.994 17.548-80.904-17.547-83.683c-37.611 0-68.21 31.012-68.21 68.623z" fill="#fff5f5"/><path d="m417.018 242.509h35.031v-100.958c0-37.61-30.599-68.623-68.21-68.623v164.587l.608-.092z" fill="#c29578"/><path d="m315.598 451.574h68.242l22.832-55.183-22.832-55.073h-68.242z" fill="#fff5f5"/></g><g><path d="m383.84 72.928c-18.372 0-33.265 14.67-33.265 33.042l.136 136.539h33.129l9.622-85.898z" fill="#f2e3cb"/></g><path d="m383.84 341.318h66.552v110.257h-66.552z" fill="#f2e3cb"/><path d="m417.105 105.97c0-18.372-14.893-33.042-33.265-33.042v169.581h33.401z" fill="#e6c897"/></g></g></svg>